<?xml version="1.0" encoding="utf-8"?>
<!-- Generator: Adobe Illustrator 18.1.1, SVG Export Plug-In . SVG Version: 6.00 Build 0)  -->
<svg version="1.1" id="Layer_1" xmlns="http://www.w3.org/2000/svg" xmlns:xlink="http://www.w3.org/1999/xlink" x="0px" y="0px"
	 viewBox="36 246.2 720 119.5" enable-background="new 36 246.2 720 119.5" xml:space="preserve">
<path fill="#FFFFFF" d="M228.7,300.7c2.4-32.6,27.4-54.3,60.2-54.3c15.5,0,32.4,6.1,40.7,17.6l-12.5,9.6
	c-5.4-7.7-16.5-13.3-28.2-13.3c-24.4,0-40.7,17.9-42.8,40.4H228.7z M160.6,300.7l10.7-27.4l10.7,27.4h20.7l-22.1-51.4h-17.5
	l-22.4,51.4H160.6z M110.2,300.7v-51.4H82.6v51.4H110.2z M370.4,300.7l57.2-51.4h-16.5l-54,50.9H357v-50.9h-11.5v51.4H370.4z
	 M82.4,329.3c-0.8,7.1-3.5,11.7-10.8,11.7c-5.8,0-9.9-4-11.4-9.9L36,339.2c4.2,15.5,17.8,26.6,36.8,26.6c28.5,0,36.2-20.3,37.2-37.5
	L82.4,329.3z M451.9,300.7h20.9c-12.9-4.3-24.4-9.2-24.4-23.7c0-15.5,14.1-22.9,26.3-22.9c10.9,0,18.7,4,25,11.5l6.6-5.9
	c-5.8-7.5-16.2-13.5-31.1-13.5c-17.3,0-35.9,9.8-35.9,30.8C439.3,289,444.6,295.9,451.9,300.7z M756,300.7v-51.4h-3.5v51.4H756z
	 M669,300.7v-46.9h0.5l35.1,46.9h4.4l-38.5-51.4h-5v51.4H669z M530.2,300.7c2.3-27.5,22.6-49.2,52.2-49.2c29.4,0,49.7,21.7,52,49.2
	h6.2c-2.4-31.8-26.3-54.5-58.2-54.5c-32,0-56,22.6-58.4,54.5H530.2z M129.1,327.5l-15.3,35.2h22.6l14.1-36L129.1,327.5z
	 M500.3,313.7l-15.3,0.6c8,3.9,13.8,9.5,13.8,19.9c0,15.4-13.6,23.5-26.9,23.5c-11.1,0-19.7-4.3-27.9-13.9l-6.4,5.6
	c8.2,10.4,19.5,16.3,34.3,16.3c18.1,0,36.2-10.3,36.2-32C508,324.5,505,318.3,500.3,313.7z M665.5,307.6v55.1h3.5v-55.2L665.5,307.6
	z M634.4,308.8c-1.2,28.5-21.5,51.5-52.1,51.5c-29.3,0-49.2-21-52-47.7l-6.3,0.2c3.1,31,26.8,52.9,58.3,52.9
	c32.7,0,57.2-23.9,58.4-57.2L634.4,308.8z M752.5,304.4v53.7H752l-39.1-52.2l-4.3,0.2l42.4,56.7h5.1v-58.5L752.5,304.4z
	 M372.3,318.5l41.5,44.2h17l-43.6-44.8L372.3,318.5z M288.4,351.5c-19.8,0-34.1-11.7-39.8-28.4l-17.7,0.7
	c7,25.2,28.9,41.8,57.4,41.8c19.9,0,34.4-8.5,43.3-20.5l-12.7-8.7C312.1,346.2,301,351.5,288.4,351.5z M191.7,325.2l14.7,37.5h23.1
	L213,324.4L191.7,325.2z M345.4,319.5v43.2H357v-43.6L345.4,319.5z"/>
</svg>
