<?xml version="1.0" encoding="utf-8"?>
<!-- Generator: Adobe Illustrator 18.1.1, SVG Export Plug-In . SVG Version: 6.00 Build 0)  -->
<svg version="1.1" id="Layer_1" xmlns="http://www.w3.org/2000/svg" xmlns:xlink="http://www.w3.org/1999/xlink" x="0px" y="0px"
	 viewBox="0 0 288 47.8" enable-background="new 0 0 288 47.8" xml:space="preserve">
<path fill="#5A5A5A" d="M123.8,22.4V1.2h4.6v20.4h0.1L150,1.2h6.6l-22.9,20.6l0.6,0.6H123.8z M18.5,33.8c-0.4,2.5-1.5,4-4.2,4
	c-2.3,0-4-1.6-4.5-4L0,37.2c1.7,6.2,7.1,10.6,14.7,10.6c11.1,0,14.3-7.6,14.8-14.4L18.5,33.8z M49.6,22.4l4.5-11.6l4.5,11.6H67
	L57.8,1.2h-7l-9.2,21.2H49.6z M84,22.4c0.6-9.3,7.2-16.8,17.2-16.8c4.7,0,9.1,2.2,11.3,5.3l5-3.8c-3.3-4.6-10.1-7-16.3-7
	C87.8,0.1,77.7,9,77,22.4H84z M253.2,22.4V3h0.2l14.5,19.4h1.8L253.8,1.2h-2v21.2H253.2z M167.4,22.4h9.2
	c-5.9-1.9-11.6-3.6-11.6-10.1c0-6.2,5.6-9.2,10.5-9.2c4.4,0,7.5,1.6,10,4.6l2.6-2.4c-2.3-3-6.5-5.4-12.4-5.4
	c-6.9,0-14.4,3.9-14.4,12.3C161.3,17.6,163.9,20.5,167.4,22.4z M288,22.4V1.2h-1.4v21.2H288z M197.6,22.4
	c0.7-11.3,8.9-20.3,20.9-20.3c12,0,20.2,9,20.8,20.3h2.5C241.2,9.3,231.5,0,218.5,0c-13,0-22.7,9.3-23.4,22.4H197.6z M29.7,22.4V1.2
	h-11v21.2H29.7z M251.8,25.2v21.4h1.4V25.1L251.8,25.2z M239.4,25.6c-0.8,11.1-8.8,20-20.8,20c-11.5,0-19.4-8.1-20.7-18.5l-2.5,0.1
	c1.5,12.1,10.8,20.5,23.2,20.5c12.9,0,22.6-9.3,23.3-22.3L239.4,25.6z M180.7,27.8c2.6,1.5,4.4,3.7,4.4,7.4c0,6.2-5.4,9.4-10.8,9.4
	c-4.4,0-7.9-1.7-11.1-5.6l-2.6,2.2c3.3,4.2,7.8,6.5,13.7,6.5c7.2,0,14.5-4.1,14.5-12.8c0-3.3-1-5.6-2.5-7.4L180.7,27.8z M37,33.1
	l-5.8,13.4h9l5.4-13.8L37,33.1z M286.6,23.9v20.9h-0.2l-15.2-20.3l-1.7,0.1l16.5,22.1h2.1V23.8L286.6,23.9z M62.5,32.2l5.6,14.4h9.2
	L71,31.9L62.5,32.2z M100.9,42.1c-7.7,0-13.3-4.4-15.7-10.8l-7.1,0.3c3,9.7,11.6,16.1,22.8,16.1c7.9,0,13.8-3.4,17.3-8.2l-5.1-3.5
	C110.4,40,106,42.1,100.9,42.1z M123.8,29.9v16.7h4.6V29.7L123.8,29.9z M135.1,29.5l16,17.1h6.8l-16.9-17.3L135.1,29.5z"/>
</svg>
