<?xml version="1.0" encoding="utf-8"?>
<!-- Generator: Adobe Illustrator 18.1.1, SVG Export Plug-In . SVG Version: 6.00 Build 0)  -->
<svg version="1.1" id="Layer_1" xmlns="http://www.w3.org/2000/svg" xmlns:xlink="http://www.w3.org/1999/xlink" x="0px" y="0px"
	 viewBox="0 240 792 131.7" enable-background="new 0 240 792 131.7" xml:space="preserve">
<path fill="#FFFFFF" d="M340.5,301.9v-58.3h12.7v56.1h0.3l59.1-56.1h18.2l-63,56.6l1.6,1.7C369.3,301.9,340.5,301.9,340.5,301.9z
	 M50.9,333.2c-1.1,6.9-4.1,11-11.5,11c-6.3,0-11-4.4-12.4-11l-27,9.4c4.7,17.1,19.5,29.2,40.4,29.2c30.5,0,39.3-20.9,40.7-39.6
	L50.9,333.2z M136.4,301.9l12.4-31.9l12.4,31.9h23.1l-25.3-58.3h-19.2l-25.3,58.3C114.4,301.9,136.4,301.9,136.4,301.9z M231,301.9
	c1.6-25.6,19.8-46.2,47.3-46.2c12.9,0,25,6,31.1,14.6l13.8-10.5c-9.1-12.6-27.8-19.2-44.8-19.2c-36.8,0-64.6,24.5-66.5,61.3H231z
	 M696.3,301.9v-53.4h0.5l39.9,53.4h4.9L698,243.6h-5.5v58.3C692.5,301.9,696.3,301.9,696.3,301.9z M460.3,301.9h25.3
	c-16.2-5.2-31.9-9.9-31.9-27.8c0-17,15.4-25.3,28.9-25.3c12.1,0,20.6,4.4,27.5,12.6l7.1-6.6c-6.3-8.2-17.9-14.9-34.1-14.9
	c-19,0-39.6,10.7-39.6,33.8C443.6,288.7,450.7,296.6,460.3,301.9z M792,301.9v-58.3h-3.8v58.3C788.2,301.9,792,301.9,792,301.9z
	 M543.4,301.9c1.9-31.1,24.5-55.8,57.5-55.8s55.5,24.8,57.2,55.8h6.9c-1.7-36-28.3-61.6-64.1-61.6s-62.4,25.6-64.3,61.6H543.4z
	 M81.7,301.9v-58.3H51.4v58.3C51.4,301.9,81.7,301.9,81.7,301.9z M692.5,309.6v58.9h3.8v-59.1L692.5,309.6z M658.3,310.7
	c-2.2,30.5-24.2,55-57.2,55c-31.6,0-53.3-22.3-56.9-50.9l-6.9,0.3c4.1,33.3,29.7,56.4,63.8,56.4c35.5,0,62.2-25.6,64.1-61.3
	L658.3,310.7z M496.9,316.7c7.2,4.1,12.1,10.2,12.1,20.4c0,17.1-14.8,25.9-29.7,25.9c-12.1,0-21.7-4.7-30.5-15.4l-7.2,6
	c9.1,11.6,21.5,17.9,37.7,17.9c19.8,0,39.9-11.3,39.9-35.2c0-9.1-2.8-15.4-6.9-20.4L496.9,316.7z M101.8,331.3l-15.9,36.9h24.8
	l14.9-38L101.8,331.3z M788.2,306v57.5h-0.6l-41.8-55.8l-4.7,0.3l45.4,60.8h5.8v-63L788.2,306z M171.9,328.8l15.4,39.6h25.3
	L195.2,328L171.9,328.8z M277.5,356c-21.2,0-36.6-12.1-43.2-29.7l-19.5,0.8c8.2,26.7,31.9,44.3,62.7,44.3c21.7,0,38-9.4,47.6-22.6
	l-14-9.6C303.6,350.3,291.5,356,277.5,356z M340.5,322.5v45.9h12.7v-46.5L340.5,322.5z M371.5,321.4l44,47h18.7l-46.5-47.6
	L371.5,321.4z"/>
</svg>
